<svg data-v-423bf9ae="" xmlns="http://www.w3.org/2000/svg" viewBox="0 0 659 90" class="iconLeft"><!----><!----><!----><g data-v-423bf9ae="" id="da1a9d6a-20d1-4562-9ecb-8092c48c4a52" fill="#FFFFFF" transform="matrix(4.559270569581267,0,0,4.559270569581267,101.50088015476086,-2.598783576800507)"><path d="M8.55 6.93L8.55 6.93Q8.82 5.96 9.30 5.47L9.30 5.47L9.30 5.47Q9.79 4.98 10.64 4.98L10.64 4.98L10.64 4.98Q11.31 4.98 11.72 5.41L11.72 5.41L11.72 5.41Q12.12 5.84 12.12 6.47L12.12 6.47L12.12 6.47Q12.12 6.68 12.05 6.96L12.05 6.96L12.05 6.96Q11.90 7.57 11.51 7.85L11.51 7.85L11.51 7.85Q11.12 8.12 10.65 8.12L10.65 8.12L10.65 8.12Q10.42 8.12 10.23 8.09L10.23 8.09L10.23 8.09Q10.04 8.05 9.87 7.99L9.87 7.99L9.04 11.03L9.04 11.03Q8.60 12.70 7.55 13.57L7.55 13.57L7.55 13.57Q6.50 14.45 4.69 14.45L4.69 14.45L4.69 14.45Q3.04 14.45 2.12 13.82L2.12 13.82L2.12 13.82Q1.20 13.19 1.20 11.86L1.20 11.86L1.20 11.86Q1.20 11.21 1.43 10.44L1.43 10.44L2.49 6.68L2.49 6.68Q2.55 6.50 2.55 6.33L2.55 6.33L2.55 6.33Q2.55 6.16 2.50 6.05L2.50 6.05L2.50 6.05Q2.45 5.95 2.37 5.81L2.37 5.81L2.37 5.81Q2.24 5.63 2.24 5.52L2.24 5.52L2.24 5.52Q2.24 5.46 2.27 5.38L2.27 5.38L2.27 5.38Q2.32 5.19 2.52 5.12L2.52 5.12L2.52 5.12Q2.72 5.04 3.09 5.04L3.09 5.04L6.38 5.04L6.38 5.04Q6.99 5.04 6.99 5.40L6.99 5.40L6.99 5.40Q6.99 5.49 6.97 5.54L6.97 5.54L6.97 5.54Q6.93 5.67 6.85 5.75L6.85 5.75L6.85 5.75Q6.78 5.82 6.62 5.92L6.62 5.92L6.62 5.92Q6.40 6.05 6.26 6.20L6.26 6.20L6.26 6.20Q6.12 6.36 6.02 6.68L6.02 6.68L4.80 10.96L4.80 10.96Q4.68 11.44 4.68 11.77L4.68 11.77L4.68 11.77Q4.68 12.71 5.68 12.71L5.68 12.71L5.68 12.71Q6.30 12.71 6.71 12.31L6.71 12.31L6.71 12.31Q7.13 11.91 7.41 10.95L7.41 10.95L8.55 6.93ZM22.53 5.04L22.53 5.04Q23.30 5.04 23.30 5.67L23.30 5.67L23.30 5.67Q23.30 5.87 23.21 6.16L23.21 6.16L22.88 7.29L22.88 7.29Q22.72 7.81 22.50 8.02L22.50 8.02L22.50 8.02Q22.27 8.23 21.85 8.23L21.85 8.23L21.85 8.23Q21.50 8.23 21.31 8.05L21.31 8.05L21.31 8.05Q21.13 7.87 20.96 7.48L20.96 7.48L20.72 6.90L20.72 6.90Q20.61 6.64 20.48 6.54L20.48 6.54L20.48 6.54Q20.36 6.44 20.09 6.44L20.09 6.44L19.77 6.44L17.99 12.70L17.99 12.70Q17.95 12.88 17.95 13.02L17.95 13.02L17.95 13.02Q17.95 13.19 18.00 13.30L18.00 13.30L18.00 13.30Q18.05 13.41 18.14 13.54L18.14 13.54L18.14 13.54Q18.27 13.73 18.27 13.86L18.27 13.86L18.27 13.86Q18.27 13.89 18.24 14L18.24 14L18.24 14Q18.17 14.18 17.97 14.27L17.97 14.27L17.97 14.27Q17.77 14.35 17.39 14.35L17.39 14.35L14.10 14.35L14.10 14.35Q13.80 14.35 13.64 14.25L13.64 14.25L13.64 14.25Q13.48 14.15 13.48 13.97L13.48 13.97L13.48 13.97Q13.48 13.89 13.52 13.80L13.52 13.80L13.52 13.80Q13.58 13.68 13.66 13.62L13.66 13.62L13.66 13.62Q13.73 13.55 13.89 13.45L13.89 13.45L13.89 13.45Q14.10 13.33 14.24 13.17L14.24 13.17L14.24 13.17Q14.38 13.02 14.48 12.70L14.48 12.70L16.24 6.44L15.92 6.44L15.92 6.44Q15.61 6.44 15.41 6.54L15.41 6.54L15.41 6.54Q15.22 6.64 14.99 6.90L14.99 6.90L14.53 7.48L14.53 7.48Q14.21 7.85 13.91 8.04L13.91 8.04L13.91 8.04Q13.61 8.23 13.26 8.23L13.26 8.23L13.26 8.23Q12.94 8.23 12.75 8.06L12.75 8.06L12.75 8.06Q12.57 7.90 12.57 7.60L12.57 7.60L12.57 7.60Q12.57 7.46 12.61 7.29L12.61 7.29L12.98 6.02L12.98 6.02Q13.09 5.63 13.23 5.43L13.23 5.43L13.23 5.43Q13.37 5.22 13.63 5.13L13.63 5.13L13.63 5.13Q13.89 5.04 14.36 5.04L14.36 5.04L22.53 5.04ZM26.81 14.45L26.81 14.45Q25.63 14.45 24.70 14.01L24.70 14.01L24.70 14.01Q23.76 13.58 23.20 12.73L23.20 12.73L23.20 12.73Q22.65 11.89 22.65 10.68L22.65 10.68L22.65 10.68Q22.65 9.84 22.95 8.86L22.95 8.86L22.95 8.86Q23.59 6.76 24.89 5.83L24.89 5.83L24.89 5.83Q26.19 4.90 27.68 4.90L27.68 4.90L27.68 4.90Q28.48 4.90 29.09 5.14L29.09 5.14L29.09 5.14Q29.71 5.38 30.23 5.82L30.23 5.82L30.60 5.53L30.60 5.53Q30.98 5.24 31.24 5.12L31.24 5.12L31.24 5.12Q31.50 5.01 31.82 5.01L31.82 5.01L31.82 5.01Q32.17 5.01 32.38 5.17L32.38 5.17L32.38 5.17Q32.59 5.32 32.59 5.61L32.59 5.61L32.59 5.61Q32.59 5.77 32.54 5.92L32.54 5.92L31.75 8.11L31.75 8.11Q31.63 8.48 31.45 8.64L31.45 8.64L31.45 8.64Q31.28 8.79 30.93 8.79L30.93 8.79L30.93 8.79Q30.56 8.79 30.33 8.53L30.33 8.53L30.33 8.53Q30.10 8.27 29.81 7.64L29.81 7.64L29.81 7.64Q29.47 6.99 29.26 6.78L29.26 6.78L29.26 6.78Q29.05 6.57 28.64 6.57L28.64 6.57L28.64 6.57Q28.07 6.57 27.54 7.27L27.54 7.27L27.54 7.27Q27.01 7.98 26.57 9.39L26.57 9.39L26.57 9.39Q26.21 10.58 26.21 11.38L26.21 11.38L26.21 11.38Q26.21 12.08 26.47 12.43L26.47 12.43L26.47 12.43Q26.74 12.77 27.19 12.77L27.19 12.77L27.19 12.77Q27.85 12.77 28.27 12.47L28.27 12.47L28.27 12.47Q28.70 12.18 29.15 11.68L29.15 11.68L29.15 11.68Q29.43 11.37 29.60 11.22L29.60 11.22L29.60 11.22Q29.78 11.07 29.97 11.07L29.97 11.07L29.97 11.07Q30.23 11.07 30.51 11.33L30.51 11.33L30.51 11.33Q30.79 11.58 30.77 11.83L30.77 11.83L30.77 11.83Q30.79 12.14 30.27 12.78L30.27 12.78L30.27 12.78Q29.76 13.43 28.86 13.94L28.86 13.94L28.86 13.94Q27.96 14.45 26.81 14.45L26.81 14.45ZM39.30 14.45L39.30 14.45Q38.12 14.45 37.18 14.01L37.18 14.01L37.18 14.01Q36.25 13.58 35.69 12.73L35.69 12.73L35.69 12.73Q35.14 11.89 35.14 10.68L35.14 10.68L35.14 10.68Q35.14 9.84 35.43 8.86L35.43 8.86L35.43 8.86Q36.08 6.76 37.38 5.83L37.38 5.83L37.38 5.83Q38.68 4.90 40.17 4.90L40.17 4.90L40.17 4.90Q40.96 4.90 41.58 5.14L41.58 5.14L41.58 5.14Q42.20 5.38 42.71 5.82L42.71 5.82L43.09 5.53L43.09 5.53Q43.47 5.24 43.73 5.12L43.73 5.12L43.73 5.12Q43.99 5.01 44.31 5.01L44.31 5.01L44.31 5.01Q44.66 5.01 44.87 5.17L44.87 5.17L44.87 5.17Q45.08 5.32 45.08 5.61L45.08 5.61L45.08 5.61Q45.08 5.77 45.02 5.92L45.02 5.92L44.24 8.11L44.24 8.11Q44.11 8.48 43.94 8.64L43.94 8.64L43.94 8.64Q43.76 8.79 43.41 8.79L43.41 8.79L43.41 8.79Q43.05 8.79 42.82 8.53L42.82 8.53L42.82 8.53Q42.59 8.27 42.29 7.64L42.29 7.64L42.29 7.64Q41.96 6.99 41.75 6.78L41.75 6.78L41.75 6.78Q41.54 6.57 41.13 6.57L41.13 6.57L41.13 6.57Q40.56 6.57 40.03 7.27L40.03 7.27L40.03 7.27Q39.49 7.98 39.06 9.39L39.06 9.39L39.06 9.39Q38.70 10.58 38.70 11.38L38.70 11.38L38.70 11.38Q38.70 12.08 38.96 12.43L38.96 12.43L38.96 12.43Q39.23 12.77 39.68 12.77L39.68 12.77L39.68 12.77Q40.33 12.77 40.76 12.47L40.76 12.47L40.76 12.47Q41.19 12.18 41.64 11.68L41.64 11.68L41.64 11.68Q41.92 11.37 42.09 11.22L42.09 11.22L42.09 11.22Q42.27 11.07 42.46 11.07L42.46 11.07L42.46 11.07Q42.71 11.07 42.99 11.33L42.99 11.33L42.99 11.33Q43.27 11.58 43.26 11.83L43.26 11.83L43.26 11.83Q43.27 12.14 42.76 12.78L42.76 12.78L42.76 12.78Q42.25 13.43 41.35 13.94L41.35 13.94L41.35 13.94Q40.45 14.45 39.30 14.45L39.30 14.45ZM49.53 6.96L49.53 6.96Q51.44 6.96 52.34 7.73L52.34 7.73L52.34 7.73Q53.24 8.50 53.24 9.74L53.24 9.74L53.24 9.74Q53.24 10.16 53.13 10.68L53.13 10.68L53.13 10.68Q52.86 11.83 52.14 12.69L52.14 12.69L52.14 12.69Q51.41 13.55 50.35 14.02L50.35 14.02L50.35 14.02Q49.29 14.49 48.06 14.49L48.06 14.49L48.06 14.49Q46.12 14.49 45.18 13.71L45.18 13.71L45.18 13.71Q44.25 12.94 44.25 11.65L44.25 11.65L44.25 11.65Q44.25 11.21 44.37 10.68L44.37 10.68L44.37 10.68Q44.63 9.59 45.38 8.74L45.38 8.74L45.38 8.74Q46.13 7.90 47.21 7.43L47.21 7.43L47.21 7.43Q48.30 6.96 49.53 6.96L49.53 6.96ZM49.49 8.20L49.49 8.20Q49.20 8.20 48.87 8.73L48.87 8.73L48.87 8.73Q48.54 9.25 48.09 10.71L48.09 10.71L48.09 10.71Q47.64 12.17 47.64 12.75L47.64 12.75L47.64 12.75Q47.64 13.06 47.74 13.17L47.74 13.17L47.74 13.17Q47.84 13.27 48.01 13.27L48.01 13.27L48.01 13.27Q48.30 13.30 48.61 12.77L48.61 12.77L48.61 12.77Q48.93 12.24 49.41 10.70L49.41 10.70L49.41 10.70Q49.84 9.34 49.84 8.72L49.84 8.72L49.84 8.72Q49.84 8.43 49.75 8.32L49.75 8.32L49.75 8.32Q49.66 8.20 49.49 8.20L49.49 8.20ZM67.47 9.67L66.61 12.43L66.61 12.43Q66.58 12.49 66.58 12.60L66.58 12.60L66.58 12.60Q66.58 12.70 66.63 12.75L66.63 12.75L66.63 12.75Q66.68 12.81 66.77 12.81L66.77 12.81L66.77 12.81Q66.93 12.81 67.05 12.66L67.05 12.66L67.05 12.66Q67.17 12.52 67.21 12.52L67.21 12.52L67.21 12.52Q67.28 12.52 67.33 12.61L67.33 12.61L67.33 12.61Q67.37 12.70 67.37 12.82L67.37 12.82L67.37 12.82Q67.38 13.23 67.10 13.62L67.10 13.62L67.10 13.62Q66.82 14 66.28 14.25L66.28 14.25L66.28 14.25Q65.74 14.49 64.99 14.49L64.99 14.49L64.99 14.49Q64.06 14.49 63.52 14.06L63.52 14.06L63.52 14.06Q62.97 13.64 62.96 12.92L62.96 12.92L62.96 12.92Q62.96 12.40 63.21 11.76L63.21 11.76L63.98 9.74L63.98 9.74Q64.05 9.56 64.05 9.45L64.05 9.45L64.05 9.45Q64.05 9.27 63.93 9.16L63.93 9.16L63.93 9.16Q63.81 9.06 63.64 9.06L63.64 9.06L63.64 9.06Q63.41 9.06 63.15 9.27L63.15 9.27L63.15 9.27Q62.90 9.48 62.71 9.93L62.71 9.93L61.94 12.43L61.94 12.43Q61.91 12.49 61.91 12.60L61.91 12.60L61.91 12.60Q61.91 12.70 61.96 12.75L61.96 12.75L61.96 12.75Q62.01 12.81 62.09 12.81L62.09 12.81L62.09 12.81Q62.26 12.81 62.38 12.66L62.38 12.66L62.38 12.66Q62.50 12.52 62.54 12.52L62.54 12.52L62.54 12.52Q62.61 12.52 62.65 12.61L62.65 12.61L62.65 12.61Q62.69 12.70 62.69 12.82L62.69 12.82L62.69 12.82Q62.71 13.23 62.43 13.62L62.43 13.62L62.43 13.62Q62.15 14 61.61 14.25L61.61 14.25L61.61 14.25Q61.07 14.49 60.31 14.49L60.31 14.49L60.31 14.49Q59.39 14.49 58.84 14.06L58.84 14.06L58.84 14.06Q58.30 13.64 58.28 12.92L58.28 12.92L58.28 12.92Q58.28 12.40 58.53 11.76L58.53 11.76L59.30 9.74L59.30 9.74Q59.37 9.56 59.37 9.45L59.37 9.45L59.37 9.45Q59.37 9.27 59.26 9.16L59.26 9.16L59.26 9.16Q59.14 9.06 58.97 9.06L58.97 9.06L58.97 9.06Q58.73 9.06 58.48 9.26L58.48 9.26L58.48 9.26Q58.23 9.46 58.06 9.91L58.06 9.91L57.13 12.91L57.13 12.91Q57.08 13.06 57.08 13.20L57.08 13.20L57.08 13.20Q57.08 13.37 57.15 13.48L57.15 13.48L57.15 13.48Q57.22 13.58 57.34 13.69L57.34 13.69L57.34 13.69Q57.44 13.78 57.48 13.85L57.48 13.85L57.48 13.85Q57.53 13.92 57.50 14.01L57.50 14.01L57.50 14.01Q57.44 14.20 57.23 14.28L57.23 14.28L57.23 14.28Q57.02 14.36 56.57 14.36L56.57 14.36L53.38 14.36L53.38 14.36Q53.02 14.36 52.86 14.25L52.86 14.25L52.86 14.25Q52.70 14.13 52.74 13.93L52.74 13.93L52.74 13.93Q52.79 13.76 53.03 13.64L53.03 13.64L53.03 13.64Q53.24 13.52 53.38 13.37L53.38 13.37L53.38 13.37Q53.52 13.22 53.62 12.88L53.62 12.88L54.87 8.83L54.87 8.83Q54.89 8.76 54.89 8.64L54.89 8.64L54.89 8.64Q54.89 8.48 54.83 8.40L54.83 8.40L54.83 8.40Q54.77 8.32 54.63 8.19L54.63 8.19L54.63 8.19Q54.49 8.08 54.43 7.99L54.43 7.99L54.43 7.99Q54.38 7.91 54.42 7.77L54.42 7.77L54.42 7.77Q54.50 7.45 55.30 7.20L55.30 7.20L55.30 7.20Q56.10 6.96 56.97 6.96L56.97 6.96L56.97 6.96Q57.65 6.96 58.05 7.34L58.05 7.34L58.05 7.34Q58.45 7.71 58.44 8.37L58.44 8.37L58.44 8.37Q59.01 7.57 59.65 7.27L59.65 7.27L59.65 7.27Q60.28 6.96 61.03 6.96L61.03 6.96L61.03 6.96Q61.84 6.96 62.35 7.43L62.35 7.43L62.35 7.43Q62.86 7.90 62.92 8.65L62.92 8.65L62.92 8.65Q63.52 7.70 64.20 7.33L64.20 7.33L64.20 7.33Q64.89 6.96 65.70 6.96L65.70 6.96L65.70 6.96Q66.56 6.96 67.08 7.48L67.08 7.48L67.08 7.48Q67.61 7.99 67.61 8.82L67.61 8.82L67.61 8.82Q67.61 9.25 67.47 9.67L67.47 9.67ZM82.14 9.67L81.28 12.43L81.28 12.43Q81.26 12.49 81.26 12.60L81.26 12.60L81.26 12.60Q81.26 12.70 81.31 12.75L81.31 12.75L81.31 12.75Q81.35 12.81 81.44 12.81L81.44 12.81L81.44 12.81Q81.61 12.81 81.72 12.66L81.72 12.66L81.72 12.66Q81.84 12.52 81.89 12.52L81.89 12.52L81.89 12.52Q81.96 12.52 82.00 12.61L82.00 12.61L82.00 12.61Q82.04 12.70 82.04 12.82L82.04 12.82L82.04 12.82Q82.05 13.23 81.77 13.62L81.77 13.62L81.77 13.62Q81.49 14 80.95 14.25L80.95 14.25L80.95 14.25Q80.42 14.49 79.66 14.49L79.66 14.49L79.66 14.49Q78.74 14.49 78.19 14.06L78.19 14.06L78.19 14.06Q77.64 13.64 77.63 12.92L77.63 12.92L77.63 12.92Q77.63 12.40 77.88 11.76L77.88 11.76L78.65 9.74L78.65 9.74Q78.72 9.56 78.72 9.45L78.72 9.45L78.72 9.45Q78.72 9.27 78.60 9.16L78.60 9.16L78.60 9.16Q78.48 9.06 78.32 9.06L78.32 9.06L78.32 9.06Q78.08 9.06 77.83 9.27L77.83 9.27L77.83 9.27Q77.57 9.48 77.38 9.93L77.38 9.93L76.61 12.43L76.61 12.43Q76.58 12.49 76.58 12.60L76.58 12.60L76.58 12.60Q76.58 12.70 76.63 12.75L76.63 12.75L76.63 12.75Q76.68 12.81 76.76 12.81L76.76 12.81L76.76 12.81Q76.93 12.81 77.05 12.66L77.05 12.66L77.05 12.66Q77.17 12.52 77.21 12.52L77.21 12.52L77.21 12.52Q77.28 12.52 77.32 12.61L77.32 12.61L77.32 12.61Q77.36 12.70 77.36 12.82L77.36 12.82L77.36 12.82Q77.38 13.23 77.10 13.62L77.10 13.62L77.10 13.62Q76.82 14 76.28 14.25L76.28 14.25L76.28 14.25Q75.74 14.49 74.98 14.49L74.98 14.49L74.98 14.49Q74.06 14.49 73.51 14.06L73.51 14.06L73.51 14.06Q72.97 13.64 72.95 12.92L72.95 12.92L72.95 12.92Q72.95 12.40 73.21 11.76L73.21 11.76L73.98 9.74L73.98 9.74Q74.05 9.56 74.05 9.45L74.05 9.45L74.05 9.45Q74.05 9.27 73.93 9.16L73.93 9.16L73.93 9.16Q73.81 9.06 73.64 9.06L73.64 9.06L73.64 9.06Q73.40 9.06 73.15 9.26L73.15 9.26L73.15 9.26Q72.90 9.46 72.73 9.91L72.73 9.91L71.81 12.91L71.81 12.91Q71.75 13.06 71.75 13.20L71.75 13.20L71.75 13.20Q71.75 13.37 71.82 13.48L71.82 13.48L71.82 13.48Q71.89 13.58 72.02 13.69L72.02 13.69L72.02 13.69Q72.11 13.78 72.16 13.85L72.16 13.85L72.16 13.85Q72.20 13.92 72.17 14.01L72.17 14.01L72.17 14.01Q72.11 14.20 71.90 14.28L71.90 14.28L71.90 14.28Q71.69 14.36 71.25 14.36L71.25 14.36L68.05 14.36L68.05 14.36Q67.69 14.36 67.53 14.25L67.53 14.25L67.53 14.25Q67.37 14.13 67.41 13.93L67.41 13.93L67.41 13.93Q67.47 13.76 67.70 13.64L67.70 13.64L67.70 13.64Q67.91 13.52 68.05 13.37L68.05 13.37L68.05 13.37Q68.19 13.22 68.29 12.88L68.29 12.88L69.54 8.83L69.54 8.83Q69.57 8.76 69.57 8.64L69.57 8.64L69.57 8.64Q69.57 8.48 69.50 8.40L69.50 8.40L69.50 8.40Q69.44 8.32 69.30 8.19L69.30 8.19L69.30 8.19Q69.16 8.08 69.10 7.99L69.10 7.99L69.10 7.99Q69.05 7.91 69.09 7.77L69.09 7.77L69.09 7.77Q69.17 7.45 69.97 7.20L69.97 7.20L69.97 7.20Q70.77 6.96 71.64 6.96L71.64 6.96L71.64 6.96Q72.32 6.96 72.72 7.34L72.72 7.34L72.72 7.34Q73.12 7.71 73.11 8.37L73.11 8.37L73.11 8.37Q73.68 7.57 74.32 7.27L74.32 7.27L74.32 7.27Q74.96 6.96 75.70 6.96L75.70 6.96L75.70 6.96Q76.51 6.96 77.02 7.43L77.02 7.43L77.02 7.43Q77.53 7.90 77.59 8.65L77.59 8.65L77.59 8.65Q78.19 7.70 78.88 7.33L78.88 7.33L78.88 7.33Q79.56 6.96 80.37 6.96L80.37 6.96L80.37 6.96Q81.23 6.96 81.75 7.48L81.75 7.48L81.75 7.48Q82.28 7.99 82.28 8.82L82.28 8.82L82.28 8.82Q82.28 9.25 82.14 9.67L82.14 9.67ZM92.09 8.72L90.96 12.43L90.96 12.43Q90.93 12.54 90.93 12.60L90.93 12.60L90.93 12.60Q90.93 12.70 90.98 12.75L90.98 12.75L90.98 12.75Q91.03 12.81 91.11 12.81L91.11 12.81L91.11 12.81Q91.28 12.81 91.40 12.66L91.40 12.66L91.40 12.66Q91.52 12.52 91.56 12.52L91.56 12.52L91.56 12.52Q91.63 12.52 91.68 12.61L91.68 12.61L91.68 12.61Q91.73 12.70 91.73 12.82L91.73 12.82L91.73 12.82Q91.74 13.22 91.45 13.60L91.45 13.60L91.45 13.60Q91.15 13.99 90.62 14.24L90.62 14.24L90.62 14.24Q90.09 14.49 89.43 14.49L89.43 14.49L89.43 14.49Q88.61 14.49 88.12 14.15L88.12 14.15L88.12 14.15Q87.63 13.82 87.49 13.27L87.49 13.27L87.49 13.27Q86.98 13.83 86.37 14.12L86.37 14.12L86.37 14.12Q85.76 14.41 85.13 14.41L85.13 14.41L85.13 14.41Q84.15 14.41 83.49 13.92L83.49 13.92L83.49 13.92Q82.82 13.44 82.82 12.57L82.82 12.57L82.82 12.57Q82.82 12.18 82.96 11.76L82.96 11.76L83.86 8.83L83.86 8.83Q83.90 8.71 83.90 8.62L83.90 8.62L83.90 8.62Q83.90 8.47 83.83 8.38L83.83 8.38L83.83 8.38Q83.76 8.29 83.62 8.19L83.62 8.19L83.62 8.19Q83.48 8.08 83.43 7.99L83.43 7.99L83.43 7.99Q83.37 7.91 83.41 7.77L83.41 7.77L83.41 7.77Q83.50 7.45 84.29 7.20L84.29 7.20L84.29 7.20Q85.09 6.96 85.96 6.96L85.96 6.96L85.96 6.96Q86.77 6.96 87.15 7.27L87.15 7.27L87.15 7.27Q87.53 7.57 87.53 8.11L87.53 8.11L87.53 8.11Q87.53 8.43 87.43 8.72L87.43 8.72L86.55 11.63L86.55 11.63Q86.49 11.79 86.49 11.93L86.49 11.93L86.49 11.93Q86.49 12.12 86.60 12.22L86.60 12.22L86.60 12.22Q86.72 12.32 86.90 12.32L86.90 12.32L86.90 12.32Q87.16 12.32 87.33 12.17L87.33 12.17L87.33 12.17Q87.50 12.01 87.67 11.65L87.67 11.65L88.52 8.83L88.52 8.83Q88.56 8.71 88.56 8.62L88.56 8.62L88.56 8.62Q88.56 8.47 88.49 8.38L88.49 8.38L88.49 8.38Q88.42 8.29 88.30 8.19L88.30 8.19L88.30 8.19Q88.16 8.08 88.10 7.99L88.10 7.99L88.10 7.99Q88.05 7.91 88.09 7.77L88.09 7.77L88.09 7.77Q88.16 7.45 88.96 7.20L88.96 7.20L88.96 7.20Q89.75 6.96 90.62 6.96L90.62 6.96L90.62 6.96Q91.43 6.96 91.82 7.27L91.82 7.27L91.82 7.27Q92.20 7.57 92.20 8.09L92.20 8.09L92.20 8.09Q92.20 8.36 92.09 8.72L92.09 8.72ZM101.77 9.67L100.91 12.43L100.91 12.43Q100.88 12.49 100.88 12.60L100.88 12.60L100.88 12.60Q100.88 12.70 100.93 12.75L100.93 12.75L100.93 12.75Q100.98 12.81 101.07 12.81L101.07 12.81L101.07 12.81Q101.23 12.81 101.35 12.66L101.35 12.66L101.35 12.66Q101.47 12.52 101.51 12.52L101.51 12.52L101.51 12.52Q101.58 12.52 101.63 12.61L101.63 12.61L101.63 12.61Q101.67 12.70 101.67 12.82L101.67 12.82L101.67 12.82Q101.68 13.23 101.40 13.62L101.40 13.62L101.40 13.62Q101.12 14 100.58 14.25L100.58 14.25L100.58 14.25Q100.04 14.49 99.29 14.49L99.29 14.49L99.29 14.49Q98.36 14.49 97.82 14.06L97.82 14.06L97.82 14.06Q97.27 13.64 97.26 12.92L97.26 12.92L97.26 12.92Q97.26 12.40 97.51 11.76L97.51 11.76L98.28 9.74L98.28 9.74Q98.35 9.56 98.35 9.45L98.35 9.45L98.35 9.45Q98.35 9.27 98.23 9.16L98.23 9.16L98.23 9.16Q98.11 9.06 97.94 9.06L97.94 9.06L97.94 9.06Q97.64 9.06 97.36 9.35L97.36 9.35L97.36 9.35Q97.08 9.63 96.95 10.05L96.95 10.05L96.08 12.91L96.08 12.91Q96.03 13.06 96.03 13.20L96.03 13.20L96.03 13.20Q96.03 13.37 96.10 13.48L96.10 13.48L96.10 13.48Q96.17 13.58 96.29 13.69L96.29 13.69L96.29 13.69Q96.39 13.78 96.43 13.85L96.43 13.85L96.43 13.85Q96.47 13.92 96.45 14.01L96.45 14.01L96.45 14.01Q96.39 14.20 96.18 14.28L96.18 14.28L96.18 14.28Q95.97 14.36 95.52 14.36L95.52 14.36L92.33 14.36L92.33 14.36Q91.97 14.36 91.80 14.25L91.80 14.25L91.80 14.25Q91.64 14.13 91.69 13.93L91.69 13.93L91.69 13.93Q91.74 13.76 91.98 13.64L91.98 13.64L91.98 13.64Q92.19 13.52 92.33 13.37L92.33 13.37L92.33 13.37Q92.47 13.22 92.57 12.88L92.57 12.88L93.81 8.83L93.81 8.83Q93.84 8.76 93.84 8.64L93.84 8.64L93.84 8.64Q93.84 8.48 93.78 8.40L93.78 8.40L93.78 8.40Q93.72 8.32 93.58 8.19L93.58 8.19L93.58 8.19Q93.44 8.08 93.38 7.99L93.38 7.99L93.38 7.99Q93.32 7.91 93.37 7.77L93.37 7.77L93.37 7.77Q93.45 7.45 94.25 7.20L94.25 7.20L94.25 7.20Q95.05 6.96 95.91 6.96L95.91 6.96L95.91 6.96Q96.61 6.96 97.02 7.34L97.02 7.34L97.02 7.34Q97.43 7.73 97.38 8.41L97.38 8.41L97.38 8.41Q97.96 7.59 98.60 7.27L98.60 7.27L98.60 7.27Q99.25 6.96 100.00 6.96L100.00 6.96L100.00 6.96Q100.86 6.96 101.38 7.48L101.38 7.48L101.38 7.48Q101.91 7.99 101.91 8.82L101.91 8.82L101.91 8.82Q101.91 9.25 101.77 9.67L101.77 9.67ZM105.91 6.96L105.91 6.96Q106.72 6.96 107.10 7.27L107.10 7.27L107.10 7.27Q107.48 7.57 107.48 8.11L107.48 8.11L107.48 8.11Q107.48 8.43 107.38 8.72L107.38 8.72L106.09 12.91L106.09 12.91Q106.05 13.08 106.05 13.20L106.05 13.20L106.05 13.20Q106.05 13.38 106.12 13.49L106.12 13.49L106.12 13.49Q106.19 13.59 106.32 13.69L106.32 13.69L106.32 13.69Q106.41 13.79 106.46 13.85L106.46 13.85L106.46 13.85Q106.50 13.92 106.47 14.01L106.47 14.01L106.47 14.01Q106.40 14.20 106.19 14.28L106.19 14.28L106.19 14.28Q105.98 14.36 105.55 14.36L105.55 14.36L102.35 14.36L102.35 14.36Q101.99 14.36 101.82 14.25L101.82 14.25L101.82 14.25Q101.65 14.13 101.71 13.93L101.71 13.93L101.71 13.93Q101.77 13.76 102.00 13.64L102.00 13.64L102.00 13.64Q102.21 13.52 102.35 13.37L102.35 13.37L102.35 13.37Q102.49 13.22 102.59 12.88L102.59 12.88L103.81 8.83L103.81 8.83Q103.85 8.71 103.85 8.62L103.85 8.62L103.85 8.62Q103.85 8.47 103.78 8.38L103.78 8.38L103.78 8.38Q103.71 8.29 103.57 8.19L103.57 8.19L103.57 8.19Q103.43 8.08 103.38 7.99L103.38 7.99L103.38 7.99Q103.32 7.91 103.36 7.77L103.36 7.77L103.36 7.77Q103.45 7.45 104.24 7.20L104.24 7.20L104.24 7.20Q105.04 6.96 105.91 6.96L105.91 6.96ZM106.85 3.86L106.85 3.86Q107.39 3.86 107.76 4.22L107.76 4.22L107.76 4.22Q108.12 4.58 108.12 5.10L108.12 5.10L108.12 5.10Q108.12 5.46 107.93 5.81L107.93 5.81L107.93 5.81Q107.74 6.16 107.40 6.38L107.40 6.38L107.40 6.38Q107.06 6.59 106.64 6.59L106.64 6.59L106.64 6.59Q106.11 6.59 105.75 6.24L105.75 6.24L105.75 6.24Q105.39 5.88 105.38 5.35L105.38 5.35L105.38 5.35Q105.38 5.00 105.56 4.66L105.56 4.66L105.56 4.66Q105.74 4.31 106.08 4.09L106.08 4.09L106.08 4.09Q106.41 3.86 106.85 3.86L106.85 3.86ZM113.65 7.14L113.65 7.14Q113.92 7.14 114.06 7.25L114.06 7.25L114.06 7.25Q114.21 7.36 114.21 7.56L114.21 7.56L114.21 7.56Q114.21 7.62 114.18 7.76L114.18 7.76L114.18 7.76Q114.00 8.37 113.34 8.37L113.34 8.37L112.53 8.37L111.48 11.83L111.48 11.83Q111.41 12.04 111.41 12.26L111.41 12.26L111.41 12.26Q111.41 12.52 111.55 12.61L111.55 12.61L111.55 12.61Q111.69 12.71 111.94 12.71L111.94 12.71L111.94 12.71Q112.17 12.71 112.50 12.66L112.50 12.66L112.50 12.66Q112.67 12.61 112.80 12.61L112.80 12.61L112.80 12.61Q112.90 12.61 112.94 12.68L112.94 12.68L112.94 12.68Q112.99 12.74 112.99 12.84L112.99 12.84L112.99 12.84Q113.01 13.12 112.58 13.52L112.58 13.52L112.58 13.52Q112.15 13.92 111.43 14.20L111.43 14.20L111.43 14.20Q110.70 14.49 109.82 14.49L109.82 14.49L109.82 14.49Q108.86 14.49 108.29 14.06L108.29 14.06L108.29 14.06Q107.72 13.62 107.72 12.87L107.72 12.87L107.72 12.87Q107.72 12.52 107.83 12.19L107.83 12.19L108.72 9.42L108.72 9.42Q108.79 9.18 108.79 9.04L108.79 9.04L108.79 9.04Q108.79 8.76 108.66 8.57L108.66 8.57L108.66 8.57Q108.53 8.37 108.29 8.16L108.29 8.16L108.29 8.16Q108.08 7.97 108.00 7.83L108.00 7.83L108.00 7.83Q107.91 7.70 107.95 7.52L107.95 7.52L107.95 7.52Q108.01 7.34 108.19 7.24L108.19 7.24L108.19 7.24Q108.37 7.14 108.77 7.14L108.77 7.14L109.55 7.14L110.43 6.26L110.43 6.26Q110.89 5.80 111.28 5.61L111.28 5.61L111.28 5.61Q111.66 5.43 112.28 5.43L112.28 5.43L112.28 5.43Q113.16 5.43 113.16 6.10L113.16 6.10L113.16 6.10Q113.16 6.31 113.11 6.50L113.11 6.50L112.91 7.14L113.65 7.14ZM120.83 6.96L120.83 6.96Q121.45 6.96 121.82 7.46L121.82 7.46L121.82 7.46Q122.19 7.95 122.19 8.81L122.19 8.81L122.19 8.81Q122.19 9.55 121.93 10.40L121.93 10.40L121.93 10.40Q121.41 12.12 120.27 13.65L120.27 13.65L120.27 13.65Q119.13 15.18 117.65 16.10L117.65 16.10L117.65 16.10Q116.17 17.02 114.70 17.02L114.70 17.02L114.70 17.02Q113.97 17.02 113.45 16.77L113.45 16.77L113.45 16.77Q112.92 16.52 112.65 16.10L112.65 16.10L112.65 16.10Q112.38 15.68 112.38 15.20L112.38 15.20L112.38 15.20Q112.38 14.99 112.45 14.74L112.45 14.74L112.45 14.74Q112.57 14.35 112.87 14.14L112.87 14.14L112.87 14.14Q113.16 13.93 113.57 13.93L113.57 13.93L113.57 13.93Q114.21 13.93 114.62 14.37L114.62 14.37L114.62 14.37Q115.04 14.81 115.15 15.58L115.15 15.58L115.15 15.58Q116.05 15.54 116.80 14.81L116.80 14.81L116.80 14.81Q116.09 14.69 115.74 14.33L115.74 14.33L115.74 14.33Q115.40 13.97 115.28 13.22L115.28 13.22L114.72 9.79L114.72 9.79Q114.67 9.52 114.60 9.42L114.60 9.42L114.60 9.42Q114.52 9.31 114.39 9.31L114.39 9.31L114.39 9.31Q114.30 9.31 114.16 9.41L114.16 9.41L114.16 9.41Q114.03 9.51 113.97 9.51L113.97 9.51L113.97 9.51Q113.86 9.51 113.86 9.27L113.86 9.27L113.86 9.27Q113.86 9.07 113.93 8.85L113.93 8.85L113.93 8.85Q114.18 8.05 114.87 7.50L114.87 7.50L114.87 7.50Q115.56 6.94 116.47 6.94L116.47 6.94L116.47 6.94Q117.36 6.94 117.79 7.48L117.79 7.48L117.79 7.48Q118.22 8.01 118.34 9.11L118.34 9.11L118.76 12.19L118.76 12.19Q118.80 12.54 119.01 12.54L119.01 12.54L119.01 12.54Q119.27 12.54 119.60 12.09L119.60 12.09L119.60 12.09Q119.94 11.63 120.26 10.79L120.26 10.79L120.26 10.79Q119.84 10.42 119.62 9.93L119.62 9.93L119.62 9.93Q119.39 9.44 119.39 8.88L119.39 8.88L119.39 8.88Q119.39 8.44 119.50 8.09L119.50 8.09L119.50 8.09Q119.67 7.53 120.03 7.25L120.03 7.25L120.03 7.25Q120.39 6.96 120.83 6.96L120.83 6.96Z"></path></g><!----><g data-v-423bf9ae="" id="bd1363aa-edae-4a99-b4a4-1abd08819aff" transform="matrix(1,0,0,1,-9.486000061035156,-7)" stroke="none" fill="#FFC400"><circle cx="53.759" cy="19.742" r="12.242"></circle><circle cx="20.238" cy="35.55" r="9.965"></circle><path d="M47.633 92.602c-6.214-3.746-23.203-15.154-31.437-32.301-3.363-7.002-.865-9.157 2.386-12.903a9.922 9.922 0 0 0 7.059-.593 9.922 9.922 0 0 0 4.878-5.138c1.059-.042 2.039-.101 2.96-.102a26.797 26.797 0 0 0-.204 3.444c0 10.253 2.387 21.276 7.093 32.763a124.851 124.851 0 0 0 7.271 14.795l-.006.035z"></path><path d="M36.119 45.007c0-9.543 3.912-10.601 9.504-13.022a12.195 12.195 0 0 0 8.136 3.097c3.125 0 5.972-1.171 8.136-3.097 5.592 2.421 9.504 3.48 9.504 13.022 0 23.37-12.748 45.039-17.64 52.493-4.891-7.454-17.64-29.122-17.64-52.493z"></path><path d="M91.321 60.301c-8.233 17.148-25.222 28.555-31.437 32.301a.25.25 0 0 0-.006-.038c2.229-3.875 4.875-8.949 7.271-14.795 4.707-11.487 7.093-22.51 7.093-32.763 0-1.254-.069-2.396-.204-3.444.921 0 1.9.06 2.96.102a9.918 9.918 0 0 0 4.878 5.138 9.923 9.923 0 0 0 7.059.593c3.251 3.749 5.749 5.905 2.386 12.906z"></path><circle cx="87.28" cy="35.55" r="9.965"></circle></g><!----></svg>